HIERARCHY
ROOT root
{
	OFFSET 0.000000 0.000000 0.000000
	CHANNELS 6 Xposition Yposition Zposition Zrotation Yrotation Xrotation
	JOINT lhip
	{
		OFFSET 0.058581 -0.082280 -0.017664
		CHANNELS 3 Zrotation Yrotation Xrotation
		JOINT lknee
		{
			OFFSET 0.043451 -0.386469 0.008037
			CHANNELS 3 Zrotation Yrotation Xrotation
			JOINT lankle
			{
				OFFSET -0.014790 -0.426874 -0.037428
				CHANNELS 3 Zrotation Yrotation Xrotation
				JOINT ltoe
				{
					OFFSET 0.041054 -0.060286 0.122042
					CHANNELS 3 Zrotation Yrotation Xrotation
					End Site
					{
						OFFSET 0.000000 0.000000 0.000000
					}
				}
			}
		}
	}
	JOINT rhip
	{
		OFFSET -0.060310 -0.090513 -0.013543
		CHANNELS 3 Zrotation Yrotation Xrotation
		JOINT rknee
		{
			OFFSET -0.043257 -0.383688 -0.004843
			CHANNELS 3 Zrotation Yrotation Xrotation
			JOINT rankle
			{
				OFFSET 0.019056 -0.420046 -0.034562
				CHANNELS 3 Zrotation Yrotation Xrotation
				JOINT rtoe
				{
					OFFSET -0.034840 -0.062106 0.130323
					CHANNELS 3 Zrotation Yrotation Xrotation
					End Site
					{
						OFFSET 0.000000 0.000000 0.000000
					}
				}
			}
		}
	}
	JOINT lowerback
	{
		OFFSET 0.004439 0.124404 -0.038385
		CHANNELS 3 Zrotation Yrotation Xrotation
		JOINT upperback
		{
			OFFSET 0.004488 0.137956 0.026820
			CHANNELS 3 Zrotation Yrotation Xrotation
			JOINT chest
			{
				OFFSET -0.002265 0.056032 0.002855
				CHANNELS 3 Zrotation Yrotation Xrotation
				JOINT lowerneck
				{
					OFFSET -0.013390 0.211636 -0.033468
					CHANNELS 3 Zrotation Yrotation Xrotation
					JOINT upperneck
					{
						OFFSET 0.010113 0.088937 0.050410
						CHANNELS 3 Zrotation Yrotation Xrotation
						End Site
						{
							OFFSET 0.000000 0.000000 0.000000
						}
					}
				}
				JOINT lclavicle
				{
					OFFSET 0.071702 0.114000 -0.018898
					CHANNELS 3 Zrotation Yrotation Xrotation
					JOINT lshoulder
					{
						OFFSET 0.122921 0.045205 -0.019046
						CHANNELS 3 Zrotation Yrotation Xrotation
						JOINT lelbow
						{
							OFFSET 0.255332 -0.015649 -0.022946
							CHANNELS 3 Zrotation Yrotation Xrotation
							JOINT lwrist
							{
								OFFSET 0.265709 0.012698 -0.007375
								CHANNELS 3 Zrotation Yrotation Xrotation
								End Site
								{
									OFFSET 0.000000 0.000000 0.000000
								}
							}
						}
					}
				}
				JOINT rclavicle
				{
					OFFSET -0.082954 0.112472 -0.023707
					CHANNELS 3 Zrotation Yrotation Xrotation
					JOINT rshoulder
					{
						OFFSET -0.113228 0.046853 -0.008472
						CHANNELS 3 Zrotation Yrotation Xrotation
						JOINT relbow
						{
							OFFSET -0.260127 -0.014369 -0.031269
							CHANNELS 3 Zrotation Yrotation Xrotation
							JOINT rwrist
							{
								OFFSET -0.269108 0.006794 -0.006027
								CHANNELS 3 Zrotation Yrotation Xrotation
								End Site
								{
									OFFSET 0.000000 0.000000 0.000000
								}
							}
						}
					}
				}
			}
		}
	}
}
MOTION
Frames: 9
Frame Time: 0.033333
1.377667 0.759852 0.988912 -91.576705 1.945847 87.336484 1.758147 -0.783324 4.507330 -2.986407 -5.893609 4.492873 6.979269 10.465343 -18.229922 0.000000 -0.000000 0.000000 1.071874 -2.603369 1.244445 3.108266 -0.478901 9.298243 1.895735 -3.324723 -12.320366 0.000000 -0.000000 0.000000 -2.529511 3.847505 6.122709 2.628404 -0.620099 2.807652 1.447533 -0.057016 2.255977 3.386376 -0.477859 11.984173 0.823283 -4.846543 13.662257 -25.111940 3.160768 5.503007 -61.783895 -6.886845 10.531523 10.502004 -30.516342 11.890890 -10.078477 -5.627105 -2.536631 26.750867 -2.189308 5.079795 61.033296 2.574443 9.461980 -20.704488 24.034275 -4.977216 6.992937 1.639640 -5.563273 
1.377265 0.758995 0.988904 -91.374058 2.005575 87.332692 1.759507 -0.891866 4.364955 -2.972748 -5.949390 4.762074 6.536168 10.246410 -18.354722 0.000000 -0.000000 0.000000 1.091642 -2.311712 1.337955 3.162196 -0.654786 9.289113 2.375890 -3.436903 -12.711560 0.000000 -0.000000 0.000000 -2.331916 3.602392 6.018765 2.553072 -0.619881 2.771101 1.370040 -0.092949 2.408434 3.480099 -0.459327 11.810847 0.709767 -5.018793 13.931254 -25.058414 3.068589 5.380125 -62.079399 -7.187377 10.926268 10.543133 -31.222139 11.920283 -10.123807 -5.969353 -2.673323 26.683338 -1.941008 5.013186 61.243149 2.653763 9.607514 -20.850593 24.065553 -5.034147 7.114910 1.721103 -5.649794 
1.376675 0.758502 0.988969 -91.357062 2.070792 87.231170 1.893520 -0.750997 4.597730 -3.096406 -5.957549 4.630191 6.448905 10.125855 -18.403443 0.000000 -0.000000 0.000000 1.108444 -2.168359 1.513942 3.228917 -0.940275 9.281576 2.857600 -3.333747 -13.674142 0.000000 -0.000000 0.000000 -2.235953 3.496866 5.998342 2.552570 -0.571894 2.841199 1.366347 -0.047046 2.346623 3.486792 -0.219366 11.734862 0.658786 -4.925263 14.033813 -25.060169 2.894617 5.342931 -62.272327 -7.427929 11.102700 10.455136 -31.790003 12.052159 -10.009255 -5.950977 -2.529883 26.702779 -1.774179 5.019211 61.235763 2.651073 9.593240 -20.795145 24.213258 -4.972084 7.225653 1.844596 -5.567909 
1.375845 0.757633 0.988973 -91.328698 2.073412 87.063675 1.955024 -0.971410 5.523160 -3.263520 -6.016936 3.194810 6.202997 10.113853 -17.769381 0.000000 -0.000000 0.000000 1.008032 -1.985249 1.716202 3.341108 -1.392684 9.259523 3.425426 -3.287380 -14.771988 0.000000 -0.000000 0.000000 -2.163093 3.422690 6.023589 2.525185 -0.467590 2.921188 1.363820 -0.059397 2.142834 3.416739 0.493700 11.554151 0.733663 -4.371266 14.271356 -24.885577 2.581393 5.404961 -62.642250 -7.805930 11.443137 10.530753 -32.198700 12.146436 -9.873968 -6.375189 -2.690471 26.687531 -1.613755 5.271553 61.356662 2.674817 9.722284 -20.501498 24.171738 -4.890565 7.573048 2.078200 -5.933470 
1.375658 0.757319 0.988885 -91.313311 2.085729 87.101273 1.949357 -0.969235 5.496792 -3.250779 -6.044419 3.180775 6.193276 10.104259 -17.717320 0.000000 -0.000000 0.000000 1.001131 -1.978912 1.680892 3.353831 -1.430916 9.257303 3.381461 -3.328444 -14.765698 0.000000 -0.000000 0.000000 -2.125384 3.400414 5.957184 2.526808 -0.455895 2.896251 1.377950 -0.068100 2.105547 3.353748 0.481243 11.617867 0.726945 -4.279837 14.276803 -24.832204 2.562050 5.426147 -62.759409 -7.902032 11.451545 10.547125 -32.463828 12.161644 -9.935281 -6.240227 -2.759141 26.635819 -1.578620 5.344459 61.369074 2.645091 9.759681 -20.455025 24.224284 -4.765572 7.855449 2.031592 -5.917557 
1.375132 0.756934 0.988815 -91.147431 2.098971 87.014353 1.940130 -0.993389 5.588021 -3.248279 -6.220740 3.226651 6.156511 10.130568 -17.742600 0.000000 -0.000000 0.000000 1.007105 -1.821773 1.893270 3.357611 -1.620283 9.145516 3.380107 -3.578960 -14.812870 0.000000 -0.000000 0.000000 -2.088158 3.291075 5.978058 2.526439 -0.483820 2.873887 1.410301 -0.072762 2.152233 3.346805 0.427660 11.643360 0.726518 -4.341720 14.223759 -24.738807 2.524003 5.389588 -62.901900 -8.111447 11.444513 10.523629 -32.757234 12.193684 -9.860119 -6.115889 -2.923265 26.575973 -1.546381 5.307720 61.476393 2.583414 9.772047 -20.760950 24.329045 -4.686374 7.490203 1.947321 -5.544791 
1.374901 0.756595 0.988893 -91.084777 2.134799 86.988768 1.927120 -1.109813 5.596775 -3.225398 -6.228927 3.299100 6.094642 10.188429 -17.789502 0.000000 -0.000000 0.000000 1.047946 -1.722157 2.015336 3.339763 -1.625311 9.019760 3.450558 -3.706684 -14.856361 0.000000 -0.000000 0.000000 -2.079281 3.221347 5.977402 2.583271 -0.547939 2.788729 1.473880 -0.110778 2.263493 3.373278 0.454426 11.483451 0.635452 -4.449003 14.359533 -24.676502 2.564971 5.294880 -62.971163 -8.124714 11.534874 10.511283 -33.034290 12.314919 -9.628202 -6.234570 -2.856517 26.703893 -1.573018 5.286728 61.201584 2.697249 9.884160 -20.715345 24.427867 -4.286609 7.403867 2.236161 -4.923748 
1.374460 0.757213 0.989105 -91.179033 2.361757 86.647149 2.308734 -1.401348 6.024682 -3.316753 -5.056678 3.376331 4.726482 9.141381 -18.825256 0.000000 -0.000000 0.000000 1.539946 -1.047259 2.564977 2.765135 -3.078627 8.875179 3.836497 -2.834924 -15.165020 0.000000 -0.000000 0.000000 -2.069011 3.633522 5.782497 3.214978 -1.156993 4.494357 1.096067 0.563641 1.248414 4.145482 1.900827 10.591167 1.066398 -6.545883 15.461217 -24.104013 2.027807 4.886202 -64.403325 -8.315553 12.374174 12.313771 -31.412794 12.509345 -10.213801 -9.495884 -2.788557 26.836692 -1.499635 4.977565 62.400183 2.235472 8.328776 -22.696378 24.329199 -3.354034 8.487976 4.845658 -2.688746 
1.374703 0.757160 0.989104 -91.257688 2.372596 86.762171 2.303203 -1.455865 5.852938 -3.314360 -4.886611 3.454967 4.884720 9.098816 -18.896577 0.000000 -0.000000 0.000000 1.502755 -1.186520 2.361572 2.758730 -3.063434 8.982800 3.809419 -2.582794 -15.184148 0.000000 -0.000000 0.000000 -2.082819 3.725276 5.664420 3.294324 -1.223621 4.513268 1.096096 0.597876 1.192730 4.249389 1.942889 10.476635 1.057565 -6.673056 15.597592 -23.897183 2.075168 4.840659 -64.809730 -8.303588 12.530106 12.625610 -31.242490 12.543612 -10.268384 -9.440675 -3.042401 26.677057 -1.584942 4.970434 62.842378 2.108608 8.474998 -23.009950 24.422524 -3.070692 8.655720 4.780714 -3.125329 
